<svg width="200" height="50" viewBox="0 0 200 50" fill="none" xmlns="http://www.w3.org/2000/svg">
    <!-- Main ilionx X Mark - Large -->
    <g transform="translate(0, 3) scale(0.14)">
        <path fill="#E8003D" d="M231.395 0L183.485 75.0895L196.804 96.1936L207.234 113.265L207.853 112.323L217.701 96.1936L279.08 0H231.395Z"/>
        <path fill="#E8003D" d="M34.1846 0L132.799 149.877L27 309.798H74.7034L155.628 187.469L156.942 185.302L156.998 185.378L180.484 149.896L81.888 0H34.1846Z"/>
        <path fill="#E8003D" d="M194.196 202.412L180.728 223.497L235.315 309.798H283L215.093 202.412L204.645 185.284L194.196 202.412Z"/>
    </g>
    
    <!-- Paw badge circle background -->
    <circle cx="40" cy="42" r="6" fill="white" stroke="#E8003D" stroke-width="1"/>
    
    <!-- Paw Print inside badge (Font Awesome) - centered -->
    <g transform="translate(34.6, 36.9) scale(0.021)">
        <path fill="#E8003D" d="M226.5 92.9c14.3 42.9-.3 86.2-32.6 96.8s-70.1-15.6-84.4-58.5s.3-86.2 32.6-96.8s70.1 15.6 84.4 58.5zM100.4 198.6c18.9 32.4 14.3 70.1-10.2 84.1s-59.7-.9-78.5-33.3S-2.7 179.3 21.8 165.3s59.7 .9 78.5 33.3zM69.2 401.2C121.6 259.9 214.7 224 256 224s134.4 35.9 186.8 177.2c3.6 9.7 5.2 20.1 5.2 30.5l0 1.6c0 25.8-20.9 46.7-46.7 46.7c-11.5 0-22.9-1.4-34-4.2l-88-22c-15.3-3.8-31.3-3.8-46.6 0l-88 22c-11.1 2.8-22.5 4.2-34 4.2C84.9 480 64 459.1 64 433.3l0-1.6c0-10.4 1.6-20.8 5.2-30.5zM421.8 282.7c-24.5-14-29.1-51.7-10.2-84.1s54-47.3 78.5-33.3s29.1 51.7 10.2 84.1s-54 47.3-78.5 33.3zM310.1 189.7c-32.3-10.6-46.9-53.9-32.6-96.8s52.1-69.1 84.4-58.5s46.9 53.9 32.6 96.8s-52.1 69.1-84.4 58.5z"/>
    </g>
    
    <!-- VetHub text -->
    <text x="55" y="33" font-family="Poppins, sans-serif" font-size="24" font-weight="300" fill="#404040">
        <tspan fill="#E8003D" font-weight="500">Vet</tspan><tspan fill="#404040" font-weight="300">Hub</tspan>
    </text>
</svg>
